<?xml version="1.0" standalone="no"?>
<!DOCTYPE svg PUBLIC "-//W3C//DTD SVG 20010904//EN"
 "http://www.w3.org/TR/2001/REC-SVG-20010904/DTD/svg10.dtd">
<svg version="1.0" xmlns="http://www.w3.org/2000/svg"
 width="700.000000pt" height="700.000000pt" viewBox="0 0 700.000000 700.000000"
 preserveAspectRatio="xMidYMid meet">
<metadata>
Created by potrace 1.14, written by Peter Selinger 2001-2017
</metadata>
<g transform="translate(0.000000,700.000000) scale(0.100000,-0.100000)"
fill="#000000" stroke="none">
<path d="M1448 6855 c-149 -48 -566 -409 -776 -672 -330 -415 -552 -916 -636
-1438 -17 -109 -41 -363 -34 -370 3 -3 791 -4 1752 -3 l1747 3 -806 1165
c-444 641 -825 1184 -848 1208 -23 24 -75 59 -115 79 -63 32 -85 37 -155 40
-53 2 -98 -2 -129 -12z"/>
<path d="M5998 5679 c-336 -49 -612 -290 -715 -624 l-27 -90 -4 -512 -3 -513
-2625 0 -2624 0 0 -68 c0 -99 26 -307 55 -433 77 -343 250 -696 483 -989 42
-52 132 -152 201 -221 1069 -1070 2938 -1224 4226 -348 612 416 1015 1018
1129 1684 27 160 36 351 36 803 l0 442 238 0 c256 0 307 7 401 55 77 38 146
113 189 202 35 75 37 82 37 183 0 100 -2 108 -37 182 -61 129 -157 207 -295
243 -45 12 -118 15 -333 14 -151 -1 -301 -5 -332 -10z"/>
<path d="M935 1294 c-80 -19 -188 -74 -254 -128 -157 -129 -241 -306 -241
-511 0 -186 57 -322 190 -456 69 -70 101 -94 170 -128 194 -95 397 -95 590 0
120 60 231 171 289 291 95 195 95 394 0 588 -34 69 -58 101 -128 170 -96 95
-186 147 -301 174 -81 19 -235 19 -315 0z"/>
<path d="M4863 1290 c-225 -59 -408 -243 -469 -471 -22 -85 -22 -234 0 -319
118 -454 642 -646 1021 -375 113 80 192 189 241 330 24 70 28 95 27 200 0 103
-4 132 -26 201 -70 212 -254 384 -472 439 -82 21 -232 19 -322 -5z"/>
</g>
</svg>
